<?xml version="1.0" encoding="UTF-8" standalone="no"?>
<svg
   xmlns:dc="http://purl.org/dc/elements/1.1/"
   xmlns:cc="http://creativecommons.org/ns#"
   xmlns:rdf="http://www.w3.org/1999/02/22-rdf-syntax-ns#"
   xmlns:svg="http://www.w3.org/2000/svg"
   xmlns="http://www.w3.org/2000/svg"
   xmlns:xlink="http://www.w3.org/1999/xlink"
   xmlns:sodipodi="http://sodipodi.sourceforge.net/DTD/sodipodi-0.dtd"
   xmlns:inkscape="http://www.inkscape.org/namespaces/inkscape"
   inkscape:version="1.0beta2 (unknown)"
   sodipodi:docname="bowser.svg.2020_04_21_10_34_53.0.svg"
   id="svg12"
   version="1.1"
   width="512pt"
   viewBox="0 -1 512.10588 512"
   height="512pt"
   inkscape:export-xdpi="96"
   inkscape:export-ydpi="96">
  <metadata
     id="metadata18">
    <rdf:RDF>
      <cc:Work
         rdf:about="">
        <dc:format>image/svg+xml</dc:format>
        <dc:type
           rdf:resource="http://purl.org/dc/dcmitype/StillImage" />
      </cc:Work>
    </rdf:RDF>
  </metadata>
  <defs
     id="defs16">
    <inkscape:path-effect
       message="Use fill-rule evenodd on &lt;b&gt;fill and stroke&lt;/b&gt; dialog if no flatten result after convert clip to paths."
       hide_clip="false"
       flatten="false"
       inverse="true"
       lpeversion="1"
       is_visible="true"
       id="path-effect1842"
       effect="powerclip" />
    <inkscape:path-effect
       message="Use fill-rule evenodd on &lt;b&gt;fill and stroke&lt;/b&gt; dialog if no flatten result after convert clip to paths."
       hide_clip="false"
       flatten="false"
       inverse="true"
       lpeversion="1"
       is_visible="true"
       id="path-effect1834"
       effect="powerclip" />
    <inkscape:path-effect
       message="Use fill-rule evenodd on &lt;b&gt;fill and stroke&lt;/b&gt; dialog if no flatten result after convert clip to paths."
       hide_clip="false"
       flatten="false"
       inverse="true"
       lpeversion="1"
       is_visible="true"
       id="path-effect1826"
       effect="powerclip" />
    <inkscape:path-effect
       message="Use fill-rule evenodd on &lt;b&gt;fill and stroke&lt;/b&gt; dialog if no flatten result after convert clip to paths."
       hide_clip="false"
       flatten="false"
       inverse="true"
       lpeversion="1"
       is_visible="true"
       id="path-effect1818"
       effect="powerclip" />
    <inkscape:path-effect
       message="Use fill-rule evenodd on &lt;b&gt;fill and stroke&lt;/b&gt; dialog if no flatten result after convert clip to paths."
       hide_clip="false"
       flatten="false"
       inverse="true"
       lpeversion="1"
       is_visible="true"
       id="path-effect1810"
       effect="powerclip" />
    <inkscape:path-effect
       message="Use fill-rule evenodd on &lt;b&gt;fill and stroke&lt;/b&gt; dialog if no flatten result after convert clip to paths."
       hide_clip="false"
       flatten="false"
       inverse="true"
       lpeversion="1"
       is_visible="true"
       id="path-effect1802"
       effect="powerclip" />
    <inkscape:path-effect
       message="Use fill-rule evenodd on &lt;b&gt;fill and stroke&lt;/b&gt; dialog if no flatten result after convert clip to paths."
       hide_clip="false"
       flatten="false"
       inverse="true"
       lpeversion="1"
       is_visible="true"
       id="path-effect1794"
       effect="powerclip" />
    <inkscape:path-effect
       message="Use fill-rule evenodd on &lt;b&gt;fill and stroke&lt;/b&gt; dialog if no flatten result after convert clip to paths."
       hide_clip="false"
       flatten="false"
       inverse="true"
       lpeversion="1"
       is_visible="true"
       id="path-effect1763"
       effect="powerclip" />
    <inkscape:path-effect
       message="Use fill-rule evenodd on &lt;b&gt;fill and stroke&lt;/b&gt; dialog if no flatten result after convert clip to paths."
       hide_clip="false"
       flatten="false"
       inverse="true"
       lpeversion="1"
       is_visible="true"
       id="path-effect1755"
       effect="powerclip" />
    <inkscape:path-effect
       message="Use fill-rule evenodd on &lt;b&gt;fill and stroke&lt;/b&gt; dialog if no flatten result after convert clip to paths."
       hide_clip="false"
       flatten="false"
       inverse="true"
       lpeversion="1"
       is_visible="true"
       id="path-effect1747"
       effect="powerclip" />
    <inkscape:path-effect
       message="Use fill-rule evenodd on &lt;b&gt;fill and stroke&lt;/b&gt; dialog if no flatten result after convert clip to paths."
       hide_clip="false"
       flatten="false"
       inverse="true"
       lpeversion="1"
       is_visible="true"
       id="path-effect1739"
       effect="powerclip" />
    <marker
       inkscape:isstock="true"
       style="overflow:visible;"
       id="Arrow1Lend"
       refX="0.0"
       refY="0.0"
       orient="auto"
       inkscape:stockid="Arrow1Lend">
      <path
         transform="scale(0.8) rotate(180) translate(12.5,0)"
         style="fill-rule:evenodd;stroke:#000000;stroke-width:1pt;stroke-opacity:1;fill:#ff0000;fill-opacity:0"
         d="M 0.0,0.0 L 5.0,-5.0 L -12.5,0.0 L 5.0,5.0 L 0.0,0.0 z "
         id="path856" />
    </marker>
    <clipPath
       id="clipPath1759"
       clipPathUnits="userSpaceOnUse">
      <ellipse
         d="M 565.82414,43.850178 A 161.10823,165.04755 0 0 1 404.71591,208.89772 161.10823,165.04755 0 0 1 243.60768,43.850178 161.10823,165.04755 0 0 1 404.71591,-121.19737 161.10823,165.04755 0 0 1 565.82414,43.850178"
         ry="165.04755"
         rx="161.10823"
         cy="43.850178"
         cx="404.71591"
         id="ellipse1761"
         style="display:none;opacity:0.995;fill:#ff0000;fill-opacity:0.999622;stroke:none;stroke-width:54.2912;stroke-linecap:butt;stroke-miterlimit:4;stroke-dasharray:none;stroke-opacity:1" />
    </clipPath>
    <clipPath
       clipPathUnits="userSpaceOnUse"
       id="clipath_lpe_path-effect1794">
      <ellipse
         style="display:none;opacity:0.995;fill:#ff0000;fill-opacity:0.999622;stroke:none;stroke-width:54.2912;stroke-linecap:butt;stroke-miterlimit:4;stroke-dasharray:none;stroke-opacity:1"
         id="ellipse19"
         cx="404.71591"
         cy="43.850178"
         rx="161.10823"
         ry="165.04755"
         d="M 565.82414,43.850178 A 161.10823,165.04755 0 0 1 404.71591,208.89772 161.10823,165.04755 0 0 1 243.60768,43.850178 161.10823,165.04755 0 0 1 404.71591,-121.19737 161.10823,165.04755 0 0 1 565.82414,43.850178" />
      <path
         id="lpe_path-effect1794"
         style="fill-rule:evenodd"
         class="powerclip"
         d="M 3.5839291,24.43273 H 511.53442 V 507.75642 H 3.5839291 Z"
         inkscape:connector-curvature="0" />
    </clipPath>
    <clipPath
       id="clipath_lpe_path-effect1802"
       clipPathUnits="userSpaceOnUse">
      <ellipse
         d="M 565.82414,43.850178 A 161.10823,165.04755 0 0 1 404.71591,208.89772 161.10823,165.04755 0 0 1 243.60768,43.850178 161.10823,165.04755 0 0 1 404.71591,-121.19737 161.10823,165.04755 0 0 1 565.82414,43.850178"
         ry="165.04755"
         rx="161.10823"
         cy="43.850178"
         cx="404.71591"
         id="ellipse23"
         style="display:none;opacity:0.995;fill:#ff0000;fill-opacity:0.999622;stroke:none;stroke-width:54.2912;stroke-linecap:butt;stroke-miterlimit:4;stroke-dasharray:none;stroke-opacity:1" />
      <path
         inkscape:connector-curvature="0"
         d="M 3.5839291,24.43273 H 511.53442 V 507.75642 H 3.5839291 Z"
         class="powerclip"
         style="fill-rule:evenodd"
         id="lpe_path-effect1802" />
    </clipPath>
    <clipPath
       clipPathUnits="userSpaceOnUse"
       id="clipath_lpe_path-effect1810">
      <ellipse
         style="display:none;opacity:0.995;fill:#ff0000;fill-opacity:0.999622;stroke:none;stroke-width:54.2912;stroke-linecap:butt;stroke-miterlimit:4;stroke-dasharray:none;stroke-opacity:1"
         id="ellipse27"
         cx="404.71591"
         cy="43.850178"
         rx="161.10823"
         ry="165.04755"
         d="M 565.82414,43.850178 A 161.10823,165.04755 0 0 1 404.71591,208.89772 161.10823,165.04755 0 0 1 243.60768,43.850178 161.10823,165.04755 0 0 1 404.71591,-121.19737 161.10823,165.04755 0 0 1 565.82414,43.850178" />
      <path
         id="lpe_path-effect1810"
         style="fill-rule:evenodd"
         class="powerclip"
         d="M 3.5839291,24.43273 H 511.53442 V 507.75642 H 3.5839291 Z"
         inkscape:connector-curvature="0" />
    </clipPath>
    <clipPath
       id="clipath_lpe_path-effect1818"
       clipPathUnits="userSpaceOnUse">
      <ellipse
         d="M 565.82414,43.850178 A 161.10823,165.04755 0 0 1 404.71591,208.89772 161.10823,165.04755 0 0 1 243.60768,43.850178 161.10823,165.04755 0 0 1 404.71591,-121.19737 161.10823,165.04755 0 0 1 565.82414,43.850178"
         ry="165.04755"
         rx="161.10823"
         cy="43.850178"
         cx="404.71591"
         id="ellipse31"
         style="display:none;opacity:0.995;fill:#ff0000;fill-opacity:0.999622;stroke:none;stroke-width:54.2912;stroke-linecap:butt;stroke-miterlimit:4;stroke-dasharray:none;stroke-opacity:1" />
      <path
         inkscape:connector-curvature="0"
         d="M 3.5839291,24.43273 H 511.53442 V 507.75642 H 3.5839291 Z"
         class="powerclip"
         style="fill-rule:evenodd"
         id="lpe_path-effect1818" />
    </clipPath>
    <clipPath
       clipPathUnits="userSpaceOnUse"
       id="clipath_lpe_path-effect1826">
      <ellipse
         style="display:none;opacity:0.995;fill:#ff0000;fill-opacity:0.999622;stroke:none;stroke-width:54.2912;stroke-linecap:butt;stroke-miterlimit:4;stroke-dasharray:none;stroke-opacity:1"
         id="ellipse35"
         cx="404.71591"
         cy="43.850178"
         rx="161.10823"
         ry="165.04755"
         d="M 565.82414,43.850178 A 161.10823,165.04755 0 0 1 404.71591,208.89772 161.10823,165.04755 0 0 1 243.60768,43.850178 161.10823,165.04755 0 0 1 404.71591,-121.19737 161.10823,165.04755 0 0 1 565.82414,43.850178" />
      <path
         id="lpe_path-effect1826"
         style="fill-rule:evenodd"
         class="powerclip"
         d="M 3.5839291,24.43273 H 511.53442 V 507.75642 H 3.5839291 Z"
         inkscape:connector-curvature="0" />
    </clipPath>
    <clipPath
       id="clipath_lpe_path-effect1834"
       clipPathUnits="userSpaceOnUse">
      <ellipse
         d="M 565.82414,43.850178 A 161.10823,165.04755 0 0 1 404.71591,208.89772 161.10823,165.04755 0 0 1 243.60768,43.850178 161.10823,165.04755 0 0 1 404.71591,-121.19737 161.10823,165.04755 0 0 1 565.82414,43.850178"
         ry="165.04755"
         rx="161.10823"
         cy="43.850178"
         cx="404.71591"
         id="ellipse39"
         style="display:none;opacity:0.995;fill:#ff0000;fill-opacity:0.999622;stroke:none;stroke-width:54.2912;stroke-linecap:butt;stroke-miterlimit:4;stroke-dasharray:none;stroke-opacity:1" />
      <path
         inkscape:connector-curvature="0"
         d="M 3.5839291,24.43273 H 511.53442 V 507.75642 H 3.5839291 Z"
         class="powerclip"
         style="fill-rule:evenodd"
         id="lpe_path-effect1834" />
    </clipPath>
  </defs>
  <sodipodi:namedview
     inkscape:current-layer="svg12"
     inkscape:window-maximized="1"
     inkscape:window-y="0"
     inkscape:window-x="0"
     inkscape:cy="259.99542"
     inkscape:cx="192.28012"
     inkscape:zoom="0.6101074"
     showgrid="false"
     id="namedview14"
     inkscape:window-height="995"
     inkscape:window-width="1920"
     inkscape:pageshadow="2"
     inkscape:pageopacity="0"
     guidetolerance="10"
     gridtolerance="10"
     objecttolerance="10"
     borderopacity="1"
     inkscape:document-rotation="0"
     bordercolor="#666666"
     pagecolor="#ffffff" />
  <circle
     r="235.65997"
     cy="254.99998"
     cx="256.05292"
     id="path881"
     style="display:inline;opacity:0.995;fill:#3b3b5a;fill-opacity:0.7;stroke-width:37.5078" />
  <path
     inkscape:path-effect="#path-effect1794;#path-effect1802;#path-effect1810;#path-effect1818;#path-effect1826;#path-effect1834"
     sodipodi:cx="257.55917"
     sodipodi:cy="266.09457"
     sodipodi:rx="239.56924"
     sodipodi:ry="227.25584"
     sodipodi:type="arc"
     d="M 497.12842,266.09457 A 239.56924,227.25584 0 0 1 257.55917,493.35042 239.56924,227.25584 0 0 1 17.989929,266.09457 239.56924,227.25584 0 0 1 257.55917,38.83873 239.56924,227.25584 0 0 1 497.12842,266.09457"
     mask="none"
     clip-path="none"
     id="path24"
     style="display:inline;opacity:0.995;fill:#ff0000;fill-opacity:0;fill-rule:evenodd;stroke:#f4f4f4;stroke-width:18.812;stroke-linecap:butt;stroke-miterlimit:4;stroke-dasharray:none;stroke-opacity:1"
     transform="matrix(0.98112919,0,0,0.99576368,3.354109,-9.9673198)" />
  <g
     style="display:inline;stroke:#f4f4f4;stroke-opacity:1"
     transform="matrix(0.89859919,0,0,0.89859919,31.403135,32.175452)"
     id="g1031">
    <circle
       style="stroke:#f4f4f4;stroke-opacity:1"
       cx="250"
       cy="250"
       r="40"
       stroke="#000"
       stroke-width="7"
       fill="none"
       id="circle988" />
    <g
       style="stroke:#f4f4f4;stroke-opacity:1"
       id="a"
       stroke="#000"
       stroke-width="7">
      <path
         style="stroke:#f4f4f4;stroke-opacity:1"
         inkscape:connector-curvature="0"
         d="M 0,250 H 250"
         id="path990" />
      <path
         style="stroke:#f4f4f4;stroke-opacity:1"
         inkscape:connector-curvature="0"
         d="m 5,200 c 60,0 60,100 0,100"
         fill="none"
         id="path992" />
      <path
         style="stroke:#f4f4f4;stroke-opacity:1"
         inkscape:connector-curvature="0"
         d="m 125,215 v 70 m -25,-70 v 70 m 50,-70 v 70"
         id="path994" />
    </g>
    <use
       style="stroke:#f4f4f4;stroke-opacity:1"
       height="100%"
       width="100%"
       y="0"
       x="0"
       xlink:href="#a"
       transform="rotate(45,250,250)"
       id="use997" />
    <use
       style="stroke:#f4f4f4;stroke-opacity:1"
       height="100%"
       width="100%"
       y="0"
       x="0"
       xlink:href="#a"
       transform="rotate(90,250,250)"
       id="use999" />
    <use
       style="stroke:#f4f4f4;stroke-opacity:1"
       height="100%"
       width="100%"
       y="0"
       x="0"
       xlink:href="#a"
       transform="rotate(135,250,250)"
       id="use1001" />
    <use
       style="stroke:#f4f4f4;stroke-opacity:1"
       height="100%"
       width="100%"
       y="0"
       x="0"
       xlink:href="#a"
       transform="rotate(180,250,250)"
       id="use1003" />
    <use
       style="stroke:#f4f4f4;stroke-opacity:1"
       height="100%"
       width="100%"
       y="0"
       x="0"
       xlink:href="#a"
       transform="rotate(-45,250,250)"
       id="use1005" />
    <use
       style="stroke:#f4f4f4;stroke-opacity:1"
       height="100%"
       width="100%"
       y="0"
       x="0"
       xlink:href="#a"
       transform="rotate(-90,250,250)"
       id="use1007" />
    <use
       style="stroke:#f4f4f4;stroke-opacity:1"
       height="100%"
       width="100%"
       y="0"
       x="0"
       xlink:href="#a"
       transform="rotate(-135,250,250)"
       id="use1009" />
  </g>
</svg>
