<?xml version="1.0" encoding="UTF-8" standalone="no"?>
<svg
   xmlns:dc="http://purl.org/dc/elements/1.1/"
   xmlns:cc="http://creativecommons.org/ns#"
   xmlns:rdf="http://www.w3.org/1999/02/22-rdf-syntax-ns#"
   xmlns:svg="http://www.w3.org/2000/svg"
   xmlns="http://www.w3.org/2000/svg"
   xmlns:sodipodi="http://sodipodi.sourceforge.net/DTD/sodipodi-0.dtd"
   xmlns:inkscape="http://www.inkscape.org/namespaces/inkscape"
   inkscape:version="1.0beta2 (unknown)"
   sodipodi:docname="bowser.svg"
   id="svg12"
   version="1.1"
   width="512pt"
   viewBox="0 -1 512.10588 512"
   height="512pt"
   inkscape:export-xdpi="96"
   inkscape:export-ydpi="96">
  <metadata
     id="metadata18">
    <rdf:RDF>
      <cc:Work
         rdf:about="">
        <dc:format>image/svg+xml</dc:format>
      </cc:Work>
    </rdf:RDF>
  </metadata>
  <defs
     id="defs16">
    <inkscape:path-effect
       message="Use fill-rule evenodd on &lt;b&gt;fill and stroke&lt;/b&gt; dialog if no flatten result after convert clip to paths."
       hide_clip="false"
       flatten="false"
       inverse="true"
       lpeversion="1"
       is_visible="true"
       id="path-effect1842"
       effect="powerclip" />
    <inkscape:path-effect
       message="Use fill-rule evenodd on &lt;b&gt;fill and stroke&lt;/b&gt; dialog if no flatten result after convert clip to paths."
       hide_clip="false"
       flatten="false"
       inverse="true"
       lpeversion="1"
       is_visible="true"
       id="path-effect1834"
       effect="powerclip" />
    <inkscape:path-effect
       message="Use fill-rule evenodd on &lt;b&gt;fill and stroke&lt;/b&gt; dialog if no flatten result after convert clip to paths."
       hide_clip="false"
       flatten="false"
       inverse="true"
       lpeversion="1"
       is_visible="true"
       id="path-effect1826"
       effect="powerclip" />
    <inkscape:path-effect
       message="Use fill-rule evenodd on &lt;b&gt;fill and stroke&lt;/b&gt; dialog if no flatten result after convert clip to paths."
       hide_clip="false"
       flatten="false"
       inverse="true"
       lpeversion="1"
       is_visible="true"
       id="path-effect1818"
       effect="powerclip" />
    <inkscape:path-effect
       message="Use fill-rule evenodd on &lt;b&gt;fill and stroke&lt;/b&gt; dialog if no flatten result after convert clip to paths."
       hide_clip="false"
       flatten="false"
       inverse="true"
       lpeversion="1"
       is_visible="true"
       id="path-effect1810"
       effect="powerclip" />
    <inkscape:path-effect
       message="Use fill-rule evenodd on &lt;b&gt;fill and stroke&lt;/b&gt; dialog if no flatten result after convert clip to paths."
       hide_clip="false"
       flatten="false"
       inverse="true"
       lpeversion="1"
       is_visible="true"
       id="path-effect1802"
       effect="powerclip" />
    <inkscape:path-effect
       message="Use fill-rule evenodd on &lt;b&gt;fill and stroke&lt;/b&gt; dialog if no flatten result after convert clip to paths."
       hide_clip="false"
       flatten="false"
       inverse="true"
       lpeversion="1"
       is_visible="true"
       id="path-effect1794"
       effect="powerclip" />
    <inkscape:path-effect
       message="Use fill-rule evenodd on &lt;b&gt;fill and stroke&lt;/b&gt; dialog if no flatten result after convert clip to paths."
       hide_clip="false"
       flatten="false"
       inverse="true"
       lpeversion="1"
       is_visible="true"
       id="path-effect1763"
       effect="powerclip" />
    <inkscape:path-effect
       message="Use fill-rule evenodd on &lt;b&gt;fill and stroke&lt;/b&gt; dialog if no flatten result after convert clip to paths."
       hide_clip="false"
       flatten="false"
       inverse="true"
       lpeversion="1"
       is_visible="true"
       id="path-effect1755"
       effect="powerclip" />
    <inkscape:path-effect
       message="Use fill-rule evenodd on &lt;b&gt;fill and stroke&lt;/b&gt; dialog if no flatten result after convert clip to paths."
       hide_clip="false"
       flatten="false"
       inverse="true"
       lpeversion="1"
       is_visible="true"
       id="path-effect1747"
       effect="powerclip" />
    <inkscape:path-effect
       message="Use fill-rule evenodd on &lt;b&gt;fill and stroke&lt;/b&gt; dialog if no flatten result after convert clip to paths."
       hide_clip="false"
       flatten="false"
       inverse="true"
       lpeversion="1"
       is_visible="true"
       id="path-effect1739"
       effect="powerclip" />
    <marker
       inkscape:isstock="true"
       style="overflow:visible;"
       id="Arrow1Lend"
       refX="0.0"
       refY="0.0"
       orient="auto"
       inkscape:stockid="Arrow1Lend">
      <path
         transform="scale(0.8) rotate(180) translate(12.5,0)"
         style="fill-rule:evenodd;stroke:#000000;stroke-width:1pt;stroke-opacity:1;fill:#ff0000;fill-opacity:0"
         d="M 0.0,0.0 L 5.0,-5.0 L -12.5,0.0 L 5.0,5.0 L 0.0,0.0 z "
         id="path856" />
    </marker>
    <clipPath
       id="clipPath1759"
       clipPathUnits="userSpaceOnUse">
      <ellipse
         d="M 565.82414,43.850178 A 161.10823,165.04755 0 0 1 404.71591,208.89772 161.10823,165.04755 0 0 1 243.60768,43.850178 161.10823,165.04755 0 0 1 404.71591,-121.19737 161.10823,165.04755 0 0 1 565.82414,43.850178"
         ry="165.04755"
         rx="161.10823"
         cy="43.850178"
         cx="404.71591"
         id="ellipse1761"
         style="display:none;opacity:0.995;fill:#ff0000;fill-opacity:0.999622;stroke:none;stroke-width:54.2912;stroke-linecap:butt;stroke-miterlimit:4;stroke-dasharray:none;stroke-opacity:1" />
      <path
         inkscape:connector-curvature="0"
         d="M 3.5839291,24.43273 H 511.53442 V 507.75642 H 3.5839291 Z M 537.85751,58.574368 A 195.37534,181.87959 0 0 0 342.48218,-123.30523 195.37534,181.87959 0 0 0 147.10684,58.574368 195.37534,181.87959 0 0 0 342.48218,240.45396 195.37534,181.87959 0 0 0 537.85751,58.574368"
         class="powerclip"
         style="fill-rule:evenodd"
         id="lpe_path-effect1763" />
    </clipPath>
    <clipPath
       clipPathUnits="userSpaceOnUse"
       id="clipath_lpe_path-effect1794">
      <ellipse
         style="display:none;opacity:0.995;fill:#ff0000;fill-opacity:0.999622;stroke:none;stroke-width:54.2912;stroke-linecap:butt;stroke-miterlimit:4;stroke-dasharray:none;stroke-opacity:1"
         id="ellipse19"
         cx="404.71591"
         cy="43.850178"
         rx="161.10823"
         ry="165.04755"
         d="M 565.82414,43.850178 A 161.10823,165.04755 0 0 1 404.71591,208.89772 161.10823,165.04755 0 0 1 243.60768,43.850178 161.10823,165.04755 0 0 1 404.71591,-121.19737 161.10823,165.04755 0 0 1 565.82414,43.850178" />
      <path
         id="lpe_path-effect1794"
         style="fill-rule:evenodd"
         class="powerclip"
         d="M 3.5839291,24.43273 H 511.53442 V 507.75642 H 3.5839291 Z M 537.85751,58.574368 A 195.37534,181.87959 0 0 0 342.48218,-123.30523 195.37534,181.87959 0 0 0 147.10684,58.574368 195.37534,181.87959 0 0 0 342.48218,240.45396 195.37534,181.87959 0 0 0 537.85751,58.574368"
         inkscape:connector-curvature="0" />
    </clipPath>
    <clipPath
       id="clipath_lpe_path-effect1802"
       clipPathUnits="userSpaceOnUse">
      <ellipse
         d="M 565.82414,43.850178 A 161.10823,165.04755 0 0 1 404.71591,208.89772 161.10823,165.04755 0 0 1 243.60768,43.850178 161.10823,165.04755 0 0 1 404.71591,-121.19737 161.10823,165.04755 0 0 1 565.82414,43.850178"
         ry="165.04755"
         rx="161.10823"
         cy="43.850178"
         cx="404.71591"
         id="ellipse23"
         style="display:none;opacity:0.995;fill:#ff0000;fill-opacity:0.999622;stroke:none;stroke-width:54.2912;stroke-linecap:butt;stroke-miterlimit:4;stroke-dasharray:none;stroke-opacity:1" />
      <path
         inkscape:connector-curvature="0"
         d="M 3.5839291,24.43273 H 511.53442 V 507.75642 H 3.5839291 Z M 537.85751,58.574368 A 195.37534,181.87959 0 0 0 342.48218,-123.30523 195.37534,181.87959 0 0 0 147.10684,58.574368 195.37534,181.87959 0 0 0 342.48218,240.45396 195.37534,181.87959 0 0 0 537.85751,58.574368"
         class="powerclip"
         style="fill-rule:evenodd"
         id="lpe_path-effect1802" />
    </clipPath>
    <clipPath
       clipPathUnits="userSpaceOnUse"
       id="clipath_lpe_path-effect1810">
      <ellipse
         style="display:none;opacity:0.995;fill:#ff0000;fill-opacity:0.999622;stroke:none;stroke-width:54.2912;stroke-linecap:butt;stroke-miterlimit:4;stroke-dasharray:none;stroke-opacity:1"
         id="ellipse27"
         cx="404.71591"
         cy="43.850178"
         rx="161.10823"
         ry="165.04755"
         d="M 565.82414,43.850178 A 161.10823,165.04755 0 0 1 404.71591,208.89772 161.10823,165.04755 0 0 1 243.60768,43.850178 161.10823,165.04755 0 0 1 404.71591,-121.19737 161.10823,165.04755 0 0 1 565.82414,43.850178" />
      <path
         id="lpe_path-effect1810"
         style="fill-rule:evenodd"
         class="powerclip"
         d="M 3.5839291,24.43273 H 511.53442 V 507.75642 H 3.5839291 Z M 537.85751,58.574368 A 195.37534,181.87959 0 0 0 342.48218,-123.30523 195.37534,181.87959 0 0 0 147.10684,58.574368 195.37534,181.87959 0 0 0 342.48218,240.45396 195.37534,181.87959 0 0 0 537.85751,58.574368"
         inkscape:connector-curvature="0" />
    </clipPath>
    <clipPath
       id="clipath_lpe_path-effect1818"
       clipPathUnits="userSpaceOnUse">
      <ellipse
         d="M 565.82414,43.850178 A 161.10823,165.04755 0 0 1 404.71591,208.89772 161.10823,165.04755 0 0 1 243.60768,43.850178 161.10823,165.04755 0 0 1 404.71591,-121.19737 161.10823,165.04755 0 0 1 565.82414,43.850178"
         ry="165.04755"
         rx="161.10823"
         cy="43.850178"
         cx="404.71591"
         id="ellipse31"
         style="display:none;opacity:0.995;fill:#ff0000;fill-opacity:0.999622;stroke:none;stroke-width:54.2912;stroke-linecap:butt;stroke-miterlimit:4;stroke-dasharray:none;stroke-opacity:1" />
      <path
         inkscape:connector-curvature="0"
         d="M 3.5839291,24.43273 H 511.53442 V 507.75642 H 3.5839291 Z M 537.85751,58.574368 A 195.37534,181.87959 0 0 0 342.48218,-123.30523 195.37534,181.87959 0 0 0 147.10684,58.574368 195.37534,181.87959 0 0 0 342.48218,240.45396 195.37534,181.87959 0 0 0 537.85751,58.574368"
         class="powerclip"
         style="fill-rule:evenodd"
         id="lpe_path-effect1818" />
    </clipPath>
    <clipPath
       clipPathUnits="userSpaceOnUse"
       id="clipath_lpe_path-effect1826">
      <ellipse
         style="display:none;opacity:0.995;fill:#ff0000;fill-opacity:0.999622;stroke:none;stroke-width:54.2912;stroke-linecap:butt;stroke-miterlimit:4;stroke-dasharray:none;stroke-opacity:1"
         id="ellipse35"
         cx="404.71591"
         cy="43.850178"
         rx="161.10823"
         ry="165.04755"
         d="M 565.82414,43.850178 A 161.10823,165.04755 0 0 1 404.71591,208.89772 161.10823,165.04755 0 0 1 243.60768,43.850178 161.10823,165.04755 0 0 1 404.71591,-121.19737 161.10823,165.04755 0 0 1 565.82414,43.850178" />
      <path
         id="lpe_path-effect1826"
         style="fill-rule:evenodd"
         class="powerclip"
         d="M 3.5839291,24.43273 H 511.53442 V 507.75642 H 3.5839291 Z M 537.85751,58.574368 A 195.37534,181.87959 0 0 0 342.48218,-123.30523 195.37534,181.87959 0 0 0 147.10684,58.574368 195.37534,181.87959 0 0 0 342.48218,240.45396 195.37534,181.87959 0 0 0 537.85751,58.574368"
         inkscape:connector-curvature="0" />
    </clipPath>
    <clipPath
       id="clipath_lpe_path-effect1834"
       clipPathUnits="userSpaceOnUse">
      <ellipse
         d="M 565.82414,43.850178 A 161.10823,165.04755 0 0 1 404.71591,208.89772 161.10823,165.04755 0 0 1 243.60768,43.850178 161.10823,165.04755 0 0 1 404.71591,-121.19737 161.10823,165.04755 0 0 1 565.82414,43.850178"
         ry="165.04755"
         rx="161.10823"
         cy="43.850178"
         cx="404.71591"
         id="ellipse39"
         style="display:none;opacity:0.995;fill:#ff0000;fill-opacity:0.999622;stroke:none;stroke-width:54.2912;stroke-linecap:butt;stroke-miterlimit:4;stroke-dasharray:none;stroke-opacity:1" />
      <path
         inkscape:connector-curvature="0"
         d="M 3.5839291,24.43273 H 511.53442 V 507.75642 H 3.5839291 Z M 537.85751,58.574368 A 195.37534,181.87959 0 0 0 342.48218,-123.30523 195.37534,181.87959 0 0 0 147.10684,58.574368 195.37534,181.87959 0 0 0 342.48218,240.45396 195.37534,181.87959 0 0 0 537.85751,58.574368"
         class="powerclip"
         style="fill-rule:evenodd"
         id="lpe_path-effect1834" />
    </clipPath>
    <clipPath
       id="clipPath1838"
       clipPathUnits="userSpaceOnUse">
      <ellipse
         d="M 537.85751,58.574368 A 195.37534,181.87959 0 0 1 342.48218,240.45396 195.37534,181.87959 0 0 1 147.10684,58.574368 195.37534,181.87959 0 0 1 342.48218,-123.30523 195.37534,181.87959 0 0 1 537.85751,58.574368"
         ry="181.87959"
         rx="195.37534"
         cy="58.574368"
         cx="342.48218"
         id="ellipse1840"
         style="display:none;opacity:0.995;fill:#ff0000;fill-opacity:0.999622;stroke:none;stroke-width:106.748;stroke-linecap:butt;stroke-miterlimit:4;stroke-dasharray:none;stroke-opacity:1" />
      <path
         inkscape:connector-curvature="0"
         d="M 3.5839291,24.43273 H 511.53442 V 507.75642 H 3.5839291 Z M 537.85751,58.574368 A 195.37534,181.87959 0 0 0 342.48218,-123.30523 195.37534,181.87959 0 0 0 147.10684,58.574368 195.37534,181.87959 0 0 0 342.48218,240.45396 195.37534,181.87959 0 0 0 537.85751,58.574368"
         class="powerclip"
         style="fill-rule:evenodd"
         id="lpe_path-effect1842" />
    </clipPath>
  </defs>
  <sodipodi:namedview
     inkscape:current-layer="svg12"
     inkscape:window-maximized="1"
     inkscape:window-y="0"
     inkscape:window-x="0"
     inkscape:cy="188.76027"
     inkscape:cx="507.74664"
     inkscape:zoom="1.2202148"
     showgrid="false"
     id="namedview14"
     inkscape:window-height="995"
     inkscape:window-width="1920"
     inkscape:pageshadow="2"
     inkscape:pageopacity="0"
     guidetolerance="10"
     gridtolerance="10"
     objecttolerance="10"
     borderopacity="1"
     inkscape:document-rotation="0"
     bordercolor="#666666"
     pagecolor="#ffffff" />
  <circle
     style="opacity:0.995;fill:#000000;fill-opacity:0.713453;stroke:none;stroke-width:32.5609;stroke-opacity:1"
     id="path890"
     cx="256.05292"
     cy="254.99998"
     r="240.34349" />
  <path
     style="fill:#f4f4f4;fill-opacity:1;stroke-width:0.320907"
     inkscape:connector-curvature="0"
     id="path2"
     d="m 406.03943,195.34062 c 0.38689,1.89778 1.63731,3.50551 3.38105,4.34676 1.74376,0.84252 3.78002,0.82244 5.50646,-0.055 l 25.5513,-12.92522 c 1.26574,-0.63872 1.83365,-2.13712 1.31019,-3.45533 l -15.16921,-38.31016 c -2.42296,-6.04265 -8.87906,-9.4249 -15.22635,-7.97756 l -4.06365,0.95097 c -6.96101,1.59373 -11.36034,8.47471 -9.88319,15.46314 z m 6.41822,-0.59743 c -0.20288,0.10815 -0.4447,0.11153 -0.64984,0.008 -0.21227,-0.0981 -0.36457,-0.29464 -0.40552,-0.52604 l -8.60911,-41.92638 c -0.17918,-0.90323 -0.19644,-1.83121 -0.0494,-2.74018 l 4.81573,3.4117 c 2.32441,1.62442 4.11468,3.90291 5.14203,6.54787 l 11.5831,29.25935 z m -3.89262,-51.47387 4.06238,-0.95101 c 0.43659,-0.10161 0.88137,-0.16417 1.32955,-0.18769 3.29399,-0.16378 6.33057,1.77834 7.56295,4.83811 l 14.25716,35.99807 -6.59002,3.33167 -11.39471,-28.7797 c -1.41586,-3.63889 -3.87988,-6.77596 -7.08002,-9.01206 l -5.22136,-3.70308 c 0.89525,-0.73735 1.9461,-1.26184 3.07408,-1.53437 z m 0,0" />
  <path
     style="fill:#f4f4f4;fill-opacity:1;stroke-width:0.320907"
     inkscape:connector-curvature="0"
     id="path4"
     d="m 310.15646,81.931744 41.46632,9.89239 c 0.56063,0.135067 1.08826,0.382338 1.5494,0.727195 l 15.03239,11.245101 2.42378,1.82002 23.94499,96.82997 c 1.21195,4.92244 4.60274,9.0239 9.21113,11.13724 4.6083,2.1121 9.92882,2.0065 14.44926,-0.28776 l 25.63203,-12.96712 c 2.71492,2.89421 6.98648,3.70719 10.57562,2.01276 l 13.54263,-6.40236 c 4.56043,-2.15451 6.51085,-7.59663 4.35879,-12.15718 l -28.42997,-60.20617 1.75699,-2.25863 c 3.2771,-4.22376 2.51791,-10.30209 -1.69639,-13.59096 L 413.82448,84.251249 c -2.02979,-1.579285 -4.60366,-2.286805 -7.15393,-1.967389 -2.55149,0.319541 -4.87105,1.639837 -6.44928,3.669449 l -4.38152,5.639803 -10.94051,-8.184564 -0.0164,5.12e-4 -20.24339,-14.775465 c -1.03762,-0.759237 -2.21727,-1.302343 -3.468,-1.598221 L 316.25237,56.316182 c -5.2013,-1.236249 -10.42184,1.974701 -11.66442,7.175065 l -1.6094,6.751042 c -0.602,2.50189 -0.18298,5.139796 1.16383,7.333737 1.34632,2.1927 3.50967,3.76011 6.01376,4.355708 z m 88.35882,15.155976 6.03261,-7.763627 c 0.68577,-0.881833 1.69363,-1.455718 2.80351,-1.595463 1.10866,-0.138419 2.22818,0.169426 3.11015,0.854993 l 30.14847,23.464967 c 1.83209,1.42928 2.16147,4.07049 0.73757,5.90624 l -2.78934,3.58938 c -0.63514,0.81534 -0.75802,1.91886 -0.31752,2.85228 l 29.15025,61.70985 c 0.86128,1.82397 0.0803,4.00134 -1.74359,4.86263 l -13.54777,6.40011 c -0.87707,0.41376 -1.88246,0.4627 -2.79594,0.1352 -0.91217,-0.32739 -1.65669,-1.00555 -2.07062,-1.88234 -0.31496,-0.66888 -0.8867,-1.18247 -1.58705,-1.42323 -0.69924,-0.24081 -1.46601,-0.18932 -2.12631,0.14531 l -27.75844,14.04377 c -3.03262,1.53469 -6.59907,1.60233 -9.68722,0.18506 -3.08941,-1.41721 -5.36357,-4.16507 -6.17928,-7.46503 l -24.17907,-97.77673 c -0.15257,-0.61335 -0.51251,-1.15559 -1.01811,-1.53453 l -0.89629,-0.67103 9.88781,-11.78289 11.02785,8.24651 c 1.19416,0.89122 2.88292,0.66355 3.79795,-0.5116 z m -90.20991,-25.566753 1.60414,-6.755801 c 0.25806,-1.088045 0.93939,-2.027519 1.89137,-2.613543 0.95222,-0.584664 2.09737,-0.767967 3.18439,-0.507061 l 44.89021,10.697112 c 0.54398,0.129678 1.05596,0.365231 1.5063,0.694246 l 17.89335,13.047159 -9.8637,11.760451 -12.96054,-9.700531 c -1.05845,-0.794274 -2.26805,-1.362415 -3.55568,-1.66768 l -41.47216,-9.883264 c -2.2614,-0.540536 -3.65575,-2.809702 -3.11771,-5.071036 z m 0,0" />
  <path
     style="fill:#f4f4f4;fill-opacity:1;stroke-width:0.320907"
     inkscape:connector-curvature="0"
     id="path6"
     d="m 317.60423,164.82605 c 5.11724,-0.15276 9.94945,-2.39055 13.37527,-6.1953 3.4258,-3.80473 5.14751,-8.84445 4.76315,-13.9508 -0.45691,-8.7177 -11.87611,-23.9054 -16.5596,-28.76886 -1.12679,-1.09325 -2.65812,-1.66709 -4.22539,-1.58487 -1.56854,0.0822 -3.03158,0.81287 -4.03789,2.01796 -4.1494,5.32638 -13.91855,21.62449 -13.46169,30.34221 0.15277,5.11846 2.39058,9.95067 6.19532,13.37648 3.80468,3.4258 8.8444,5.14629 13.95081,4.7632 z m 13.00309,-12.87531 c 5.11479,5.31033 -0.66569,-13.31462 -0.3339,-6.98413 0.31844,3.65745 -0.895,7.28219 -3.35161,10.0106 -2.45543,2.72833 -5.93477,4.31406 -9.60423,4.3796 -3.65746,0.31844 -7.28219,-0.89497 -10.01058,-3.35163 -2.7284,-2.45666 -4.31408,-5.93473 -4.37966,-9.60546 -0.33163,-6.32795 23.14965,11.36933 27.67998,5.55102 z"
     sodipodi:nodetypes="ccccccccccccccccc" />
  <path
     style="fill:#f4f4f4;fill-opacity:1;stroke-width:0.320907"
     inkscape:connector-curvature="0"
     id="path8"
     d="m 382.88174,103.56955 c -0.69405,0.21713 -1.27501,0.70072 -1.61304,1.34449 -0.33777,0.64531 -0.40499,1.39826 -0.18661,2.09225 l 1.64765,5.28368 c 0.37385,1.19297 1.5073,1.98214 2.75536,1.91808 0.22909,-0.0112 0.45546,-0.0515 0.67405,-0.12059 1.4438,-0.44972 2.24948,-1.98575 1.79976,-3.42955 l -1.64769,-5.28495 c -0.2159,-0.6941 -0.69818,-1.27384 -1.34103,-1.61172 -0.64277,-0.33791 -1.39459,-0.40768 -2.08875,-0.19179 z m 0,0" />
  <path
     style="fill:#f4f4f4;fill-opacity:1;stroke-width:0.320907"
     inkscape:connector-curvature="0"
     id="path10"
     d="m 386.14699,121.0838 4.73552,16.2045 c 0.35631,1.21777 1.50366,2.03255 2.77046,1.96618 0.21287,-0.0104 0.42185,-0.046 0.62579,-0.10682 1.44903,-0.42249 2.28343,-1.93858 1.86475,-3.38904 l -4.73428,-16.20455 c -0.27512,-0.93958 -1.02984,-1.66198 -1.98088,-1.89328 -0.95113,-0.23258 -1.95375,0.0609 -2.63093,0.76803 -0.67589,0.70824 -0.92396,1.72294 -0.65009,2.66256 z m 0,0" />
  <path
     inkscape:path-effect="#path-effect1763;#path-effect1794;#path-effect1802;#path-effect1810;#path-effect1818;#path-effect1826;#path-effect1834;#path-effect1842"
     sodipodi:cx="257.55917"
     sodipodi:cy="266.09457"
     sodipodi:rx="239.56924"
     sodipodi:ry="227.25584"
     sodipodi:type="arc"
     d="M 497.12842,266.09457 A 239.56924,227.25584 0 0 1 257.55917,493.35042 239.56924,227.25584 0 0 1 17.989929,266.09457 239.56924,227.25584 0 0 1 257.55917,38.83873 239.56924,227.25584 0 0 1 497.12842,266.09457 Z"
     mask="none"
     clip-path="url(#clipPath1838)"
     id="path24"
     style="opacity:0.995;fill:#ff0000;fill-opacity:0;fill-rule:evenodd;stroke:#f4f4f4;stroke-width:18.812;stroke-linecap:butt;stroke-miterlimit:4;stroke-dasharray:none;stroke-opacity:1"
     transform="matrix(0.9188702,0,0,0.9188702,18.03625,24.637294)" />
  <rect
     y="58.478024"
     x="237.46115"
     height="138.91071"
     width="216.77583"
     id="rect1719"
     style="opacity:0.995;fill:#ff0000;fill-opacity:0;stroke:none;stroke-width:34.4648;stroke-linecap:butt;stroke-miterlimit:4;stroke-dasharray:none;stroke-opacity:1" />
  <path
     sodipodi:nodetypes="cccccccccccccccc"
     d="m 202.4459,83.585828 -48.54754,9.585776 C 143.51657,94.43165 112.07901,83.791137 196.35,57.970263 c 5.20129,-1.236247 10.42184,1.974698 11.66442,7.175064 l 1.6094,6.751044 c 0.60198,2.5019 0.18298,5.139787 -1.16384,7.333738 -1.34631,2.192698 -3.50966,3.760101 -6.01378,4.355708 z m 1.8511,-10.410779 -1.60415,-6.755803 c -0.25806,-1.088042 -0.93938,-2.027522 -1.89136,-2.613541 -0.95222,-0.584667 -2.09738,-0.767973 -3.1844,-0.507059 L 152.9003,74.88705 c 58.96772,-21.532657 35.67809,6.598952 48.27902,3.359088 2.26139,-0.540538 3.65573,-2.809704 3.11771,-5.071037 z"
     id="path4-3"
     inkscape:connector-curvature="0"
     style="fill:#f4f4f4;fill-opacity:1;stroke-width:0.320907" />
</svg>
